<mxfile host="Electron" agent="Mozilla/5.0 (X11; Linux x86_64) AppleWebKit/537.36 (KHTML, like Gecko) draw.io/26.0.9 Chrome/128.0.6613.186 Electron/32.2.5 Safari/537.36" version="26.0.9" pages="2">
  <diagram id="Ht1M8jgEwFfnCIfOTk4-" name="human-approval-sqs-ses">
    <mxGraphModel dx="2010" dy="1090" grid="1" gridSize="10" guides="1" tooltips="1" connect="1" arrows="1" fold="1" page="1" pageScale="1" pageWidth="1169" pageHeight="827" math="0" shadow="0">
      <root>
        <mxCell id="0" />
        <mxCell id="1" parent="0" />
        <mxCell id="UEzPUAAOIrF-is8g5C7q-74" value="AWS Cloud" style="points=[[0,0],[0.25,0],[0.5,0],[0.75,0],[1,0],[1,0.25],[1,0.5],[1,0.75],[1,1],[0.75,1],[0.5,1],[0.25,1],[0,1],[0,0.75],[0,0.5],[0,0.25]];outlineConnect=0;gradientColor=none;html=1;whiteSpace=wrap;fontSize=12;fontStyle=0;shape=mxgraph.aws4.group;grIcon=mxgraph.aws4.group_aws_cloud_alt;strokeColor=#232F3E;fillColor=none;verticalAlign=top;align=left;spacingLeft=30;fontColor=#232F3E;dashed=0;labelBackgroundColor=#ffffff;container=0;pointerEvents=0;collapsible=0;recursiveResize=0;" parent="1" vertex="1">
          <mxGeometry x="190" y="70" width="810" height="710" as="geometry" />
        </mxCell>
        <mxCell id="unSpKAkCospbzmZrBBoh-48" value="" style="outlineConnect=0;dashed=0;verticalLabelPosition=bottom;verticalAlign=top;align=center;html=1;shape=mxgraph.aws3.lambda_function;fillColor=#F58534;gradientColor=none;" vertex="1" parent="1">
          <mxGeometry x="480" y="430" width="50" height="56" as="geometry" />
        </mxCell>
        <mxCell id="unSpKAkCospbzmZrBBoh-70" style="edgeStyle=orthogonalEdgeStyle;rounded=0;orthogonalLoop=1;jettySize=auto;html=1;" edge="1" parent="1" source="unSpKAkCospbzmZrBBoh-50" target="unSpKAkCospbzmZrBBoh-69">
          <mxGeometry relative="1" as="geometry">
            <Array as="points">
              <mxPoint x="90" y="458" />
              <mxPoint x="90" y="458" />
            </Array>
          </mxGeometry>
        </mxCell>
        <mxCell id="unSpKAkCospbzmZrBBoh-50" value="" style="sketch=0;points=[[0,0,0],[0.25,0,0],[0.5,0,0],[0.75,0,0],[1,0,0],[0,1,0],[0.25,1,0],[0.5,1,0],[0.75,1,0],[1,1,0],[0,0.25,0],[0,0.5,0],[0,0.75,0],[1,0.25,0],[1,0.5,0],[1,0.75,0]];outlineConnect=0;fontColor=#232F3E;fillColor=#DD344C;strokeColor=#ffffff;dashed=0;verticalLabelPosition=bottom;verticalAlign=top;align=center;html=1;fontSize=12;fontStyle=0;aspect=fixed;shape=mxgraph.aws4.resourceIcon;resIcon=mxgraph.aws4.simple_email_service;" vertex="1" parent="1">
          <mxGeometry x="260" y="428" width="60" height="60" as="geometry" />
        </mxCell>
        <mxCell id="unSpKAkCospbzmZrBBoh-55" value="" style="sketch=0;points=[[0,0,0],[0.25,0,0],[0.5,0,0],[0.75,0,0],[1,0,0],[0,1,0],[0.25,1,0],[0.5,1,0],[0.75,1,0],[1,1,0],[0,0.25,0],[0,0.5,0],[0,0.75,0],[1,0.25,0],[1,0.5,0],[1,0.75,0]];outlineConnect=0;fontColor=#232F3E;fillColor=#E7157B;strokeColor=#ffffff;dashed=0;verticalLabelPosition=bottom;verticalAlign=top;align=center;html=1;fontSize=12;fontStyle=0;aspect=fixed;shape=mxgraph.aws4.resourceIcon;resIcon=mxgraph.aws4.api_gateway;" vertex="1" parent="1">
          <mxGeometry x="260" y="510" width="60" height="60" as="geometry" />
        </mxCell>
        <mxCell id="unSpKAkCospbzmZrBBoh-67" style="edgeStyle=orthogonalEdgeStyle;rounded=0;orthogonalLoop=1;jettySize=auto;html=1;entryX=0;entryY=0.75;entryDx=0;entryDy=0;" edge="1" parent="1" target="unSpKAkCospbzmZrBBoh-20">
          <mxGeometry relative="1" as="geometry">
            <mxPoint x="520" y="536" as="sourcePoint" />
          </mxGeometry>
        </mxCell>
        <mxCell id="unSpKAkCospbzmZrBBoh-56" value="" style="outlineConnect=0;dashed=0;verticalLabelPosition=bottom;verticalAlign=top;align=center;html=1;shape=mxgraph.aws3.lambda_function;fillColor=#F58534;gradientColor=none;" vertex="1" parent="1">
          <mxGeometry x="480" y="510" width="50" height="56" as="geometry" />
        </mxCell>
        <mxCell id="unSpKAkCospbzmZrBBoh-2" value="AWS Step Functions workflow" style="points=[[0,0],[0.25,0],[0.5,0],[0.75,0],[1,0],[1,0.25],[1,0.5],[1,0.75],[1,1],[0.75,1],[0.5,1],[0.25,1],[0,1],[0,0.75],[0,0.5],[0,0.25]];outlineConnect=0;gradientColor=none;html=1;whiteSpace=wrap;fontSize=12;fontStyle=0;container=1;pointerEvents=0;collapsible=0;recursiveResize=0;shape=mxgraph.aws4.group;grIcon=mxgraph.aws4.group_aws_step_functions_workflow;strokeColor=#CD2264;fillColor=none;verticalAlign=top;align=left;spacingLeft=30;fontColor=#CD2264;dashed=0;" vertex="1" parent="1">
          <mxGeometry x="650" y="85" width="320" height="680" as="geometry" />
        </mxCell>
        <mxCell id="unSpKAkCospbzmZrBBoh-13" value="" style="edgeStyle=orthogonalEdgeStyle;rounded=0;orthogonalLoop=1;jettySize=auto;html=1;" edge="1" parent="unSpKAkCospbzmZrBBoh-2" source="unSpKAkCospbzmZrBBoh-5" target="unSpKAkCospbzmZrBBoh-11">
          <mxGeometry relative="1" as="geometry" />
        </mxCell>
        <mxCell id="unSpKAkCospbzmZrBBoh-89" value="&lt;div&gt;SQS: SendMessage&amp;nbsp;&amp;nbsp;&lt;/div&gt;" style="edgeLabel;html=1;align=center;verticalAlign=middle;resizable=0;points=[];" vertex="1" connectable="0" parent="unSpKAkCospbzmZrBBoh-13">
          <mxGeometry x="-0.1372" y="-3" relative="1" as="geometry">
            <mxPoint as="offset" />
          </mxGeometry>
        </mxCell>
        <mxCell id="unSpKAkCospbzmZrBBoh-5" value="" style="sketch=0;points=[[0,0,0],[0.25,0,0],[0.5,0,0],[0.75,0,0],[1,0,0],[0,1,0],[0.25,1,0],[0.5,1,0],[0.75,1,0],[1,1,0],[0,0.25,0],[0,0.5,0],[0,0.75,0],[1,0.25,0],[1,0.5,0],[1,0.75,0]];outlineConnect=0;fontColor=#232F3E;fillColor=#E7157B;strokeColor=#ffffff;dashed=0;verticalLabelPosition=bottom;verticalAlign=top;align=center;html=1;fontSize=12;fontStyle=0;aspect=fixed;shape=mxgraph.aws4.resourceIcon;resIcon=mxgraph.aws4.step_functions;" vertex="1" parent="unSpKAkCospbzmZrBBoh-2">
          <mxGeometry x="120" y="45" width="60" height="60" as="geometry" />
        </mxCell>
        <mxCell id="unSpKAkCospbzmZrBBoh-25" style="edgeStyle=orthogonalEdgeStyle;rounded=0;orthogonalLoop=1;jettySize=auto;html=1;entryX=0.5;entryY=0;entryDx=0;entryDy=0;" edge="1" parent="unSpKAkCospbzmZrBBoh-2" source="unSpKAkCospbzmZrBBoh-11" target="unSpKAkCospbzmZrBBoh-20">
          <mxGeometry relative="1" as="geometry" />
        </mxCell>
        <mxCell id="unSpKAkCospbzmZrBBoh-88" value="Callback Pattern" style="edgeLabel;html=1;align=center;verticalAlign=middle;resizable=0;points=[];" vertex="1" connectable="0" parent="unSpKAkCospbzmZrBBoh-25">
          <mxGeometry x="-0.2576" y="3" relative="1" as="geometry">
            <mxPoint as="offset" />
          </mxGeometry>
        </mxCell>
        <mxCell id="unSpKAkCospbzmZrBBoh-11" value="" style="sketch=0;points=[[0,0,0],[0.25,0,0],[0.5,0,0],[0.75,0,0],[1,0,0],[0,1,0],[0.25,1,0],[0.5,1,0],[0.75,1,0],[1,1,0],[0,0.25,0],[0,0.5,0],[0,0.75,0],[1,0.25,0],[1,0.5,0],[1,0.75,0]];outlineConnect=0;fontColor=#232F3E;fillColor=#E7157B;strokeColor=#ffffff;dashed=0;verticalLabelPosition=bottom;verticalAlign=top;align=center;html=1;fontSize=12;fontStyle=0;aspect=fixed;shape=mxgraph.aws4.resourceIcon;resIcon=mxgraph.aws4.sqs;" vertex="1" parent="unSpKAkCospbzmZrBBoh-2">
          <mxGeometry x="120" y="195" width="60" height="60" as="geometry" />
        </mxCell>
        <mxCell id="unSpKAkCospbzmZrBBoh-21" value="" style="group" vertex="1" connectable="0" parent="unSpKAkCospbzmZrBBoh-2">
          <mxGeometry x="69.5" y="335" width="161" height="155" as="geometry" />
        </mxCell>
        <mxCell id="unSpKAkCospbzmZrBBoh-20" value="" style="rounded=0;whiteSpace=wrap;html=1;" vertex="1" parent="unSpKAkCospbzmZrBBoh-21">
          <mxGeometry width="161" height="155" as="geometry" />
        </mxCell>
        <mxCell id="unSpKAkCospbzmZrBBoh-19" value="" style="sketch=0;points=[[0,0,0],[0.25,0,0],[0.5,0,0],[0.75,0,0],[1,0,0],[0,1,0],[0.25,1,0],[0.5,1,0],[0.75,1,0],[1,1,0],[0,0.25,0],[0,0.5,0],[0,0.75,0],[1,0.25,0],[1,0.5,0],[1,0.75,0]];outlineConnect=0;fontColor=#232F3E;fillColor=#E7157B;strokeColor=#ffffff;dashed=0;verticalLabelPosition=bottom;verticalAlign=top;align=center;html=1;fontSize=12;fontStyle=0;aspect=fixed;shape=mxgraph.aws4.resourceIcon;resIcon=mxgraph.aws4.step_functions;" vertex="1" parent="unSpKAkCospbzmZrBBoh-21">
          <mxGeometry width="28.2258064516129" height="28.2258064516129" as="geometry" />
        </mxCell>
        <mxCell id="unSpKAkCospbzmZrBBoh-22" value="" style="endArrow=none;dashed=1;html=1;rounded=0;exitX=0;exitY=0.5;exitDx=0;exitDy=0;entryX=1;entryY=0.5;entryDx=0;entryDy=0;elbow=horizontal;" edge="1" parent="unSpKAkCospbzmZrBBoh-21" source="unSpKAkCospbzmZrBBoh-20" target="unSpKAkCospbzmZrBBoh-20">
          <mxGeometry width="50" height="50" relative="1" as="geometry">
            <mxPoint x="400" y="65.90136054421768" as="sourcePoint" />
            <mxPoint x="450" as="targetPoint" />
          </mxGeometry>
        </mxCell>
        <mxCell id="unSpKAkCospbzmZrBBoh-23" value="Wait for Response" style="edgeLabel;html=1;align=center;verticalAlign=middle;resizable=0;points=[];" vertex="1" connectable="0" parent="unSpKAkCospbzmZrBBoh-22">
          <mxGeometry x="-0.1979" y="2" relative="1" as="geometry">
            <mxPoint x="16" y="2" as="offset" />
          </mxGeometry>
        </mxCell>
        <mxCell id="unSpKAkCospbzmZrBBoh-24" value="Ask Task&lt;div&gt;&lt;br&gt;&lt;/div&gt;" style="text;html=1;align=center;verticalAlign=middle;whiteSpace=wrap;rounded=0;" vertex="1" parent="unSpKAkCospbzmZrBBoh-21">
          <mxGeometry x="58" y="6.590136054421769" width="60" height="39.54081632653061" as="geometry" />
        </mxCell>
        <mxCell id="unSpKAkCospbzmZrBBoh-44" value="" style="sketch=0;points=[[0,0,0],[0.25,0,0],[0.5,0,0],[0.75,0,0],[1,0,0],[0,1,0],[0.25,1,0],[0.5,1,0],[0.75,1,0],[1,1,0],[0,0.25,0],[0,0.5,0],[0,0.75,0],[1,0.25,0],[1,0.5,0],[1,0.75,0]];outlineConnect=0;fontColor=#232F3E;fillColor=#E7157B;strokeColor=#ffffff;dashed=0;verticalLabelPosition=bottom;verticalAlign=top;align=center;html=1;fontSize=12;fontStyle=0;aspect=fixed;shape=mxgraph.aws4.resourceIcon;resIcon=mxgraph.aws4.step_functions;" vertex="1" parent="unSpKAkCospbzmZrBBoh-2">
          <mxGeometry x="120" y="575" width="60" height="60" as="geometry" />
        </mxCell>
        <mxCell id="unSpKAkCospbzmZrBBoh-45" style="edgeStyle=orthogonalEdgeStyle;rounded=0;orthogonalLoop=1;jettySize=auto;html=1;entryX=0.5;entryY=0;entryDx=0;entryDy=0;entryPerimeter=0;" edge="1" parent="unSpKAkCospbzmZrBBoh-2" source="unSpKAkCospbzmZrBBoh-20" target="unSpKAkCospbzmZrBBoh-44">
          <mxGeometry relative="1" as="geometry" />
        </mxCell>
        <mxCell id="unSpKAkCospbzmZrBBoh-86" value="Init Flow" style="text;html=1;align=center;verticalAlign=middle;resizable=0;points=[];autosize=1;strokeColor=none;fillColor=none;" vertex="1" parent="unSpKAkCospbzmZrBBoh-2">
          <mxGeometry x="115" y="25" width="70" height="30" as="geometry" />
        </mxCell>
        <mxCell id="unSpKAkCospbzmZrBBoh-87" value="End Flow" style="text;html=1;align=center;verticalAlign=middle;resizable=0;points=[];autosize=1;strokeColor=none;fillColor=none;" vertex="1" parent="unSpKAkCospbzmZrBBoh-2">
          <mxGeometry x="115" y="635" width="70" height="30" as="geometry" />
        </mxCell>
        <mxCell id="unSpKAkCospbzmZrBBoh-65" style="edgeStyle=orthogonalEdgeStyle;rounded=0;orthogonalLoop=1;jettySize=auto;html=1;exitX=0;exitY=0.25;exitDx=0;exitDy=0;entryX=1;entryY=0.5;entryDx=0;entryDy=0;entryPerimeter=0;" edge="1" parent="1" source="unSpKAkCospbzmZrBBoh-20" target="unSpKAkCospbzmZrBBoh-48">
          <mxGeometry relative="1" as="geometry" />
        </mxCell>
        <mxCell id="unSpKAkCospbzmZrBBoh-66" style="edgeStyle=orthogonalEdgeStyle;rounded=0;orthogonalLoop=1;jettySize=auto;html=1;entryX=1;entryY=0.5;entryDx=0;entryDy=0;entryPerimeter=0;" edge="1" parent="1" source="unSpKAkCospbzmZrBBoh-48" target="unSpKAkCospbzmZrBBoh-50">
          <mxGeometry relative="1" as="geometry" />
        </mxCell>
        <mxCell id="unSpKAkCospbzmZrBBoh-80" value="Send Email" style="edgeLabel;html=1;align=center;verticalAlign=middle;resizable=0;points=[];" vertex="1" connectable="0" parent="unSpKAkCospbzmZrBBoh-66">
          <mxGeometry x="0.0625" y="-3" relative="1" as="geometry">
            <mxPoint x="-5" y="3" as="offset" />
          </mxGeometry>
        </mxCell>
        <mxCell id="unSpKAkCospbzmZrBBoh-68" style="edgeStyle=orthogonalEdgeStyle;rounded=0;orthogonalLoop=1;jettySize=auto;html=1;entryX=0;entryY=0.5;entryDx=0;entryDy=0;entryPerimeter=0;" edge="1" parent="1" source="unSpKAkCospbzmZrBBoh-55" target="unSpKAkCospbzmZrBBoh-56">
          <mxGeometry relative="1" as="geometry">
            <Array as="points">
              <mxPoint x="360" y="538" />
              <mxPoint x="360" y="538" />
            </Array>
          </mxGeometry>
        </mxCell>
        <mxCell id="unSpKAkCospbzmZrBBoh-69" value="User" style="sketch=0;outlineConnect=0;fontColor=#232F3E;gradientColor=none;strokeColor=#232F3E;fillColor=#ffffff;dashed=0;verticalLabelPosition=bottom;verticalAlign=top;align=center;html=1;fontSize=12;fontStyle=0;aspect=fixed;shape=mxgraph.aws4.resourceIcon;resIcon=mxgraph.aws4.user;" vertex="1" parent="1">
          <mxGeometry x="40" y="489" width="102" height="102" as="geometry" />
        </mxCell>
        <mxCell id="unSpKAkCospbzmZrBBoh-71" style="edgeStyle=orthogonalEdgeStyle;rounded=0;orthogonalLoop=1;jettySize=auto;html=1;entryX=0;entryY=0.5;entryDx=0;entryDy=0;entryPerimeter=0;" edge="1" parent="1" source="unSpKAkCospbzmZrBBoh-69" target="unSpKAkCospbzmZrBBoh-55">
          <mxGeometry relative="1" as="geometry">
            <mxPoint x="50" y="530" as="sourcePoint" />
          </mxGeometry>
        </mxCell>
        <mxCell id="unSpKAkCospbzmZrBBoh-79" value="Lambda Handler&lt;div&gt;&lt;br&gt;&lt;/div&gt;" style="text;html=1;align=center;verticalAlign=middle;resizable=0;points=[];autosize=1;strokeColor=none;fillColor=none;" vertex="1" parent="1">
          <mxGeometry x="450" y="404" width="110" height="40" as="geometry" />
        </mxCell>
        <mxCell id="unSpKAkCospbzmZrBBoh-81" value="Event Trigger" style="text;html=1;align=center;verticalAlign=middle;resizable=0;points=[];autosize=1;strokeColor=none;fillColor=none;" vertex="1" parent="1">
          <mxGeometry x="575" y="438" width="90" height="30" as="geometry" />
        </mxCell>
        <mxCell id="unSpKAkCospbzmZrBBoh-84" value="API Gateway" style="text;html=1;align=center;verticalAlign=middle;resizable=0;points=[];autosize=1;strokeColor=none;fillColor=none;" vertex="1" parent="1">
          <mxGeometry x="245" y="566" width="90" height="30" as="geometry" />
        </mxCell>
        <mxCell id="unSpKAkCospbzmZrBBoh-85" value="Approve / Deny" style="text;html=1;align=center;verticalAlign=middle;resizable=0;points=[];autosize=1;strokeColor=none;fillColor=none;" vertex="1" parent="1">
          <mxGeometry x="460" y="561" width="110" height="30" as="geometry" />
        </mxCell>
      </root>
    </mxGraphModel>
  </diagram>
  <diagram id="o4XFO19nPweiv4TjZhxF" name="human-approval-sqs-sns">
    <mxGraphModel dx="1892" dy="1026" grid="1" gridSize="10" guides="1" tooltips="1" connect="1" arrows="1" fold="1" page="1" pageScale="1" pageWidth="850" pageHeight="1100" math="0" shadow="0">
      <root>
        <mxCell id="0" />
        <mxCell id="1" parent="0" />
        <mxCell id="Lcsh6hrBfrQ3jSahT-WF-1" value="AWS Cloud" style="points=[[0,0],[0.25,0],[0.5,0],[0.75,0],[1,0],[1,0.25],[1,0.5],[1,0.75],[1,1],[0.75,1],[0.5,1],[0.25,1],[0,1],[0,0.75],[0,0.5],[0,0.25]];outlineConnect=0;gradientColor=none;html=1;whiteSpace=wrap;fontSize=12;fontStyle=0;shape=mxgraph.aws4.group;grIcon=mxgraph.aws4.group_aws_cloud_alt;strokeColor=#232F3E;fillColor=none;verticalAlign=top;align=left;spacingLeft=30;fontColor=#232F3E;dashed=0;labelBackgroundColor=#ffffff;container=0;pointerEvents=0;collapsible=0;recursiveResize=0;" vertex="1" parent="1">
          <mxGeometry x="190" y="70" width="810" height="710" as="geometry" />
        </mxCell>
        <mxCell id="Lcsh6hrBfrQ3jSahT-WF-2" value="" style="outlineConnect=0;dashed=0;verticalLabelPosition=bottom;verticalAlign=top;align=center;html=1;shape=mxgraph.aws3.lambda_function;fillColor=#F58534;gradientColor=none;" vertex="1" parent="1">
          <mxGeometry x="490" y="432" width="50" height="50" as="geometry" />
        </mxCell>
        <mxCell id="Lcsh6hrBfrQ3jSahT-WF-3" style="edgeStyle=orthogonalEdgeStyle;rounded=0;orthogonalLoop=1;jettySize=auto;html=1;exitX=0;exitY=0.5;exitDx=0;exitDy=0;exitPerimeter=0;" edge="1" parent="1" source="Lcsh6hrBfrQ3jSahT-WF-35" target="Lcsh6hrBfrQ3jSahT-WF-29">
          <mxGeometry relative="1" as="geometry">
            <Array as="points">
              <mxPoint x="90" y="457" />
            </Array>
            <mxPoint x="260" y="458" as="sourcePoint" />
          </mxGeometry>
        </mxCell>
        <mxCell id="Lcsh6hrBfrQ3jSahT-WF-36" value="Send Email" style="edgeLabel;html=1;align=center;verticalAlign=middle;resizable=0;points=[];" vertex="1" connectable="0" parent="Lcsh6hrBfrQ3jSahT-WF-3">
          <mxGeometry x="-0.4483" relative="1" as="geometry">
            <mxPoint x="-15" y="1" as="offset" />
          </mxGeometry>
        </mxCell>
        <mxCell id="Lcsh6hrBfrQ3jSahT-WF-5" value="" style="sketch=0;points=[[0,0,0],[0.25,0,0],[0.5,0,0],[0.75,0,0],[1,0,0],[0,1,0],[0.25,1,0],[0.5,1,0],[0.75,1,0],[1,1,0],[0,0.25,0],[0,0.5,0],[0,0.75,0],[1,0.25,0],[1,0.5,0],[1,0.75,0]];outlineConnect=0;fontColor=#232F3E;fillColor=#E7157B;strokeColor=#ffffff;dashed=0;verticalLabelPosition=bottom;verticalAlign=top;align=center;html=1;fontSize=12;fontStyle=0;aspect=fixed;shape=mxgraph.aws4.resourceIcon;resIcon=mxgraph.aws4.api_gateway;" vertex="1" parent="1">
          <mxGeometry x="260" y="510" width="60" height="60" as="geometry" />
        </mxCell>
        <mxCell id="Lcsh6hrBfrQ3jSahT-WF-6" style="edgeStyle=orthogonalEdgeStyle;rounded=0;orthogonalLoop=1;jettySize=auto;html=1;entryX=0;entryY=0.75;entryDx=0;entryDy=0;" edge="1" parent="1" target="Lcsh6hrBfrQ3jSahT-WF-16">
          <mxGeometry relative="1" as="geometry">
            <mxPoint x="520" y="536" as="sourcePoint" />
          </mxGeometry>
        </mxCell>
        <mxCell id="Lcsh6hrBfrQ3jSahT-WF-7" value="" style="outlineConnect=0;dashed=0;verticalLabelPosition=bottom;verticalAlign=top;align=center;html=1;shape=mxgraph.aws3.lambda_function;fillColor=#F58534;gradientColor=none;" vertex="1" parent="1">
          <mxGeometry x="480" y="510" width="50" height="56" as="geometry" />
        </mxCell>
        <mxCell id="Lcsh6hrBfrQ3jSahT-WF-8" value="AWS Step Functions workflow" style="points=[[0,0],[0.25,0],[0.5,0],[0.75,0],[1,0],[1,0.25],[1,0.5],[1,0.75],[1,1],[0.75,1],[0.5,1],[0.25,1],[0,1],[0,0.75],[0,0.5],[0,0.25]];outlineConnect=0;gradientColor=none;html=1;whiteSpace=wrap;fontSize=12;fontStyle=0;container=1;pointerEvents=0;collapsible=0;recursiveResize=0;shape=mxgraph.aws4.group;grIcon=mxgraph.aws4.group_aws_step_functions_workflow;strokeColor=#CD2264;fillColor=none;verticalAlign=top;align=left;spacingLeft=30;fontColor=#CD2264;dashed=0;" vertex="1" parent="1">
          <mxGeometry x="650" y="85" width="320" height="680" as="geometry" />
        </mxCell>
        <mxCell id="Lcsh6hrBfrQ3jSahT-WF-9" value="" style="edgeStyle=orthogonalEdgeStyle;rounded=0;orthogonalLoop=1;jettySize=auto;html=1;" edge="1" parent="Lcsh6hrBfrQ3jSahT-WF-8" source="Lcsh6hrBfrQ3jSahT-WF-11" target="Lcsh6hrBfrQ3jSahT-WF-14">
          <mxGeometry relative="1" as="geometry" />
        </mxCell>
        <mxCell id="Lcsh6hrBfrQ3jSahT-WF-10" value="&lt;div&gt;SQS: SendMessage&amp;nbsp;&amp;nbsp;&lt;/div&gt;" style="edgeLabel;html=1;align=center;verticalAlign=middle;resizable=0;points=[];" vertex="1" connectable="0" parent="Lcsh6hrBfrQ3jSahT-WF-9">
          <mxGeometry x="-0.1372" y="-3" relative="1" as="geometry">
            <mxPoint as="offset" />
          </mxGeometry>
        </mxCell>
        <mxCell id="Lcsh6hrBfrQ3jSahT-WF-11" value="" style="sketch=0;points=[[0,0,0],[0.25,0,0],[0.5,0,0],[0.75,0,0],[1,0,0],[0,1,0],[0.25,1,0],[0.5,1,0],[0.75,1,0],[1,1,0],[0,0.25,0],[0,0.5,0],[0,0.75,0],[1,0.25,0],[1,0.5,0],[1,0.75,0]];outlineConnect=0;fontColor=#232F3E;fillColor=#E7157B;strokeColor=#ffffff;dashed=0;verticalLabelPosition=bottom;verticalAlign=top;align=center;html=1;fontSize=12;fontStyle=0;aspect=fixed;shape=mxgraph.aws4.resourceIcon;resIcon=mxgraph.aws4.step_functions;" vertex="1" parent="Lcsh6hrBfrQ3jSahT-WF-8">
          <mxGeometry x="120" y="45" width="60" height="60" as="geometry" />
        </mxCell>
        <mxCell id="Lcsh6hrBfrQ3jSahT-WF-12" style="edgeStyle=orthogonalEdgeStyle;rounded=0;orthogonalLoop=1;jettySize=auto;html=1;entryX=0.5;entryY=0;entryDx=0;entryDy=0;" edge="1" parent="Lcsh6hrBfrQ3jSahT-WF-8" source="Lcsh6hrBfrQ3jSahT-WF-14" target="Lcsh6hrBfrQ3jSahT-WF-16">
          <mxGeometry relative="1" as="geometry" />
        </mxCell>
        <mxCell id="Lcsh6hrBfrQ3jSahT-WF-13" value="Callback Pattern" style="edgeLabel;html=1;align=center;verticalAlign=middle;resizable=0;points=[];" vertex="1" connectable="0" parent="Lcsh6hrBfrQ3jSahT-WF-12">
          <mxGeometry x="-0.2576" y="3" relative="1" as="geometry">
            <mxPoint as="offset" />
          </mxGeometry>
        </mxCell>
        <mxCell id="Lcsh6hrBfrQ3jSahT-WF-14" value="" style="sketch=0;points=[[0,0,0],[0.25,0,0],[0.5,0,0],[0.75,0,0],[1,0,0],[0,1,0],[0.25,1,0],[0.5,1,0],[0.75,1,0],[1,1,0],[0,0.25,0],[0,0.5,0],[0,0.75,0],[1,0.25,0],[1,0.5,0],[1,0.75,0]];outlineConnect=0;fontColor=#232F3E;fillColor=#E7157B;strokeColor=#ffffff;dashed=0;verticalLabelPosition=bottom;verticalAlign=top;align=center;html=1;fontSize=12;fontStyle=0;aspect=fixed;shape=mxgraph.aws4.resourceIcon;resIcon=mxgraph.aws4.sqs;" vertex="1" parent="Lcsh6hrBfrQ3jSahT-WF-8">
          <mxGeometry x="120" y="195" width="60" height="60" as="geometry" />
        </mxCell>
        <mxCell id="Lcsh6hrBfrQ3jSahT-WF-15" value="" style="group" vertex="1" connectable="0" parent="Lcsh6hrBfrQ3jSahT-WF-8">
          <mxGeometry x="69.5" y="335" width="161" height="155" as="geometry" />
        </mxCell>
        <mxCell id="Lcsh6hrBfrQ3jSahT-WF-16" value="" style="rounded=0;whiteSpace=wrap;html=1;" vertex="1" parent="Lcsh6hrBfrQ3jSahT-WF-15">
          <mxGeometry width="161" height="155" as="geometry" />
        </mxCell>
        <mxCell id="Lcsh6hrBfrQ3jSahT-WF-17" value="" style="sketch=0;points=[[0,0,0],[0.25,0,0],[0.5,0,0],[0.75,0,0],[1,0,0],[0,1,0],[0.25,1,0],[0.5,1,0],[0.75,1,0],[1,1,0],[0,0.25,0],[0,0.5,0],[0,0.75,0],[1,0.25,0],[1,0.5,0],[1,0.75,0]];outlineConnect=0;fontColor=#232F3E;fillColor=#E7157B;strokeColor=#ffffff;dashed=0;verticalLabelPosition=bottom;verticalAlign=top;align=center;html=1;fontSize=12;fontStyle=0;aspect=fixed;shape=mxgraph.aws4.resourceIcon;resIcon=mxgraph.aws4.step_functions;" vertex="1" parent="Lcsh6hrBfrQ3jSahT-WF-15">
          <mxGeometry width="28.2258064516129" height="28.2258064516129" as="geometry" />
        </mxCell>
        <mxCell id="Lcsh6hrBfrQ3jSahT-WF-18" value="" style="endArrow=none;dashed=1;html=1;rounded=0;exitX=0;exitY=0.5;exitDx=0;exitDy=0;entryX=1;entryY=0.5;entryDx=0;entryDy=0;elbow=horizontal;" edge="1" parent="Lcsh6hrBfrQ3jSahT-WF-15" source="Lcsh6hrBfrQ3jSahT-WF-16" target="Lcsh6hrBfrQ3jSahT-WF-16">
          <mxGeometry width="50" height="50" relative="1" as="geometry">
            <mxPoint x="400" y="65.90136054421768" as="sourcePoint" />
            <mxPoint x="450" as="targetPoint" />
          </mxGeometry>
        </mxCell>
        <mxCell id="Lcsh6hrBfrQ3jSahT-WF-19" value="Wait for Response" style="edgeLabel;html=1;align=center;verticalAlign=middle;resizable=0;points=[];" vertex="1" connectable="0" parent="Lcsh6hrBfrQ3jSahT-WF-18">
          <mxGeometry x="-0.1979" y="2" relative="1" as="geometry">
            <mxPoint x="16" y="2" as="offset" />
          </mxGeometry>
        </mxCell>
        <mxCell id="Lcsh6hrBfrQ3jSahT-WF-20" value="Ask Task&lt;div&gt;&lt;br&gt;&lt;/div&gt;" style="text;html=1;align=center;verticalAlign=middle;whiteSpace=wrap;rounded=0;" vertex="1" parent="Lcsh6hrBfrQ3jSahT-WF-15">
          <mxGeometry x="58" y="6.590136054421769" width="60" height="39.54081632653061" as="geometry" />
        </mxCell>
        <mxCell id="Lcsh6hrBfrQ3jSahT-WF-21" value="" style="sketch=0;points=[[0,0,0],[0.25,0,0],[0.5,0,0],[0.75,0,0],[1,0,0],[0,1,0],[0.25,1,0],[0.5,1,0],[0.75,1,0],[1,1,0],[0,0.25,0],[0,0.5,0],[0,0.75,0],[1,0.25,0],[1,0.5,0],[1,0.75,0]];outlineConnect=0;fontColor=#232F3E;fillColor=#E7157B;strokeColor=#ffffff;dashed=0;verticalLabelPosition=bottom;verticalAlign=top;align=center;html=1;fontSize=12;fontStyle=0;aspect=fixed;shape=mxgraph.aws4.resourceIcon;resIcon=mxgraph.aws4.step_functions;" vertex="1" parent="Lcsh6hrBfrQ3jSahT-WF-8">
          <mxGeometry x="120" y="575" width="60" height="60" as="geometry" />
        </mxCell>
        <mxCell id="Lcsh6hrBfrQ3jSahT-WF-22" style="edgeStyle=orthogonalEdgeStyle;rounded=0;orthogonalLoop=1;jettySize=auto;html=1;entryX=0.5;entryY=0;entryDx=0;entryDy=0;entryPerimeter=0;" edge="1" parent="Lcsh6hrBfrQ3jSahT-WF-8" source="Lcsh6hrBfrQ3jSahT-WF-16" target="Lcsh6hrBfrQ3jSahT-WF-21">
          <mxGeometry relative="1" as="geometry" />
        </mxCell>
        <mxCell id="Lcsh6hrBfrQ3jSahT-WF-23" value="Init Flow" style="text;html=1;align=center;verticalAlign=middle;resizable=0;points=[];autosize=1;strokeColor=none;fillColor=none;" vertex="1" parent="Lcsh6hrBfrQ3jSahT-WF-8">
          <mxGeometry x="115" y="25" width="70" height="30" as="geometry" />
        </mxCell>
        <mxCell id="Lcsh6hrBfrQ3jSahT-WF-24" value="End Flow" style="text;html=1;align=center;verticalAlign=middle;resizable=0;points=[];autosize=1;strokeColor=none;fillColor=none;" vertex="1" parent="Lcsh6hrBfrQ3jSahT-WF-8">
          <mxGeometry x="115" y="635" width="70" height="30" as="geometry" />
        </mxCell>
        <mxCell id="Lcsh6hrBfrQ3jSahT-WF-25" style="rounded=0;orthogonalLoop=1;jettySize=auto;html=1;exitX=0;exitY=0.25;exitDx=0;exitDy=0;entryX=1;entryY=0.5;entryDx=0;entryDy=0;entryPerimeter=0;" edge="1" parent="1" source="Lcsh6hrBfrQ3jSahT-WF-16" target="Lcsh6hrBfrQ3jSahT-WF-2">
          <mxGeometry relative="1" as="geometry" />
        </mxCell>
        <mxCell id="Lcsh6hrBfrQ3jSahT-WF-26" style="edgeStyle=orthogonalEdgeStyle;rounded=0;orthogonalLoop=1;jettySize=auto;html=1;entryX=1;entryY=0.5;entryDx=0;entryDy=0;entryPerimeter=0;" edge="1" parent="1" source="Lcsh6hrBfrQ3jSahT-WF-2" target="Lcsh6hrBfrQ3jSahT-WF-35">
          <mxGeometry relative="1" as="geometry">
            <mxPoint x="320" y="458" as="targetPoint" />
          </mxGeometry>
        </mxCell>
        <mxCell id="Lcsh6hrBfrQ3jSahT-WF-27" value="Send to Topic&amp;nbsp;" style="edgeLabel;html=1;align=center;verticalAlign=middle;resizable=0;points=[];" vertex="1" connectable="0" parent="Lcsh6hrBfrQ3jSahT-WF-26">
          <mxGeometry x="0.0625" y="-3" relative="1" as="geometry">
            <mxPoint x="-5" y="3" as="offset" />
          </mxGeometry>
        </mxCell>
        <mxCell id="Lcsh6hrBfrQ3jSahT-WF-28" style="edgeStyle=orthogonalEdgeStyle;rounded=0;orthogonalLoop=1;jettySize=auto;html=1;entryX=0;entryY=0.5;entryDx=0;entryDy=0;entryPerimeter=0;" edge="1" parent="1" source="Lcsh6hrBfrQ3jSahT-WF-5" target="Lcsh6hrBfrQ3jSahT-WF-7">
          <mxGeometry relative="1" as="geometry">
            <Array as="points">
              <mxPoint x="360" y="538" />
              <mxPoint x="360" y="538" />
            </Array>
          </mxGeometry>
        </mxCell>
        <mxCell id="Lcsh6hrBfrQ3jSahT-WF-29" value="User" style="sketch=0;outlineConnect=0;fontColor=#232F3E;gradientColor=none;strokeColor=#232F3E;fillColor=#ffffff;dashed=0;verticalLabelPosition=bottom;verticalAlign=top;align=center;html=1;fontSize=12;fontStyle=0;aspect=fixed;shape=mxgraph.aws4.resourceIcon;resIcon=mxgraph.aws4.user;" vertex="1" parent="1">
          <mxGeometry x="40" y="489" width="102" height="102" as="geometry" />
        </mxCell>
        <mxCell id="Lcsh6hrBfrQ3jSahT-WF-30" style="edgeStyle=orthogonalEdgeStyle;rounded=0;orthogonalLoop=1;jettySize=auto;html=1;entryX=0;entryY=0.5;entryDx=0;entryDy=0;entryPerimeter=0;" edge="1" parent="1" source="Lcsh6hrBfrQ3jSahT-WF-29" target="Lcsh6hrBfrQ3jSahT-WF-5">
          <mxGeometry relative="1" as="geometry">
            <mxPoint x="50" y="530" as="sourcePoint" />
          </mxGeometry>
        </mxCell>
        <mxCell id="Lcsh6hrBfrQ3jSahT-WF-31" value="Lambda Handler&lt;div&gt;&lt;br&gt;&lt;/div&gt;" style="text;html=1;align=center;verticalAlign=middle;resizable=0;points=[];autosize=1;strokeColor=none;fillColor=none;" vertex="1" parent="1">
          <mxGeometry x="450" y="404" width="110" height="40" as="geometry" />
        </mxCell>
        <mxCell id="Lcsh6hrBfrQ3jSahT-WF-32" value="Event Trigger" style="text;html=1;align=center;verticalAlign=middle;resizable=0;points=[];autosize=1;strokeColor=none;fillColor=none;" vertex="1" parent="1">
          <mxGeometry x="580" y="432" width="90" height="30" as="geometry" />
        </mxCell>
        <mxCell id="Lcsh6hrBfrQ3jSahT-WF-33" value="API Gateway" style="text;html=1;align=center;verticalAlign=middle;resizable=0;points=[];autosize=1;strokeColor=none;fillColor=none;" vertex="1" parent="1">
          <mxGeometry x="245" y="566" width="90" height="30" as="geometry" />
        </mxCell>
        <mxCell id="Lcsh6hrBfrQ3jSahT-WF-34" value="Approve / Deny" style="text;html=1;align=center;verticalAlign=middle;resizable=0;points=[];autosize=1;strokeColor=none;fillColor=none;" vertex="1" parent="1">
          <mxGeometry x="460" y="561" width="110" height="30" as="geometry" />
        </mxCell>
        <mxCell id="Lcsh6hrBfrQ3jSahT-WF-35" value="" style="sketch=0;points=[[0,0,0],[0.25,0,0],[0.5,0,0],[0.75,0,0],[1,0,0],[0,1,0],[0.25,1,0],[0.5,1,0],[0.75,1,0],[1,1,0],[0,0.25,0],[0,0.5,0],[0,0.75,0],[1,0.25,0],[1,0.5,0],[1,0.75,0]];outlineConnect=0;fontColor=#232F3E;fillColor=#E7157B;strokeColor=#ffffff;dashed=0;verticalLabelPosition=bottom;verticalAlign=top;align=center;html=1;fontSize=12;fontStyle=0;aspect=fixed;shape=mxgraph.aws4.resourceIcon;resIcon=mxgraph.aws4.sns;" vertex="1" parent="1">
          <mxGeometry x="261" y="428" width="58" height="58" as="geometry" />
        </mxCell>
      </root>
    </mxGraphModel>
  </diagram>
</mxfile>
